<?xml version="1.0" encoding="UTF-8"?>
<svg id="Layer_2" data-name="Layer 2" xmlns="http://www.w3.org/2000/svg" viewBox="0 0 614.74 91.41">
  <defs>
    <style>
      .cls-1 {
        fill: #fff;
        stroke-width: 0px;
      }
    </style>
  </defs>
  <g id="Layer_1-2" data-name="Layer 1">
    <g id="VOGEL_WHITE">
      <path class="cls-1" d="m60.62,90.54L14.61,18.08l.07-.04-.08.03c-4.3-6.98-7.61-7.79-10.03-8.38C2.02,9.05.07,8.23.02,3.93l-.02-1.72h1.72c3.29.01,6.81.02,10.47.03h12.26l43.19,69.63L111.06,2.23h19.4l-55.95,88.31h-13.89Z"/>
      <path class="cls-1" d="m188.28,91.41c-15.81,0-30.09-3.76-40.2-10.58-11.87-8.01-18.14-20.15-18.14-35.12s6.26-27.06,18.09-35.08C158.15,3.78,172.44,0,188.28,0s30.03,3.77,40.14,10.63c11.83,8.02,18.08,20.15,18.08,35.07,0,33.7-30.07,45.7-58.21,45.7Zm0-77.47c-19.94,0-41.25,8.35-41.25,31.77,0,19.89,15.42,31.77,41.25,31.77s41-11.88,41-31.77c0-23.42-21.18-31.77-41-31.77Z"/>
      <g>
        <path class="cls-1" d="m396.72,33.89V14.3c-.74-3.03-2.57-3.63-5.47-4.34-2.53-.63-5.99-1.49-6.04-6.03l-.02-1.72h1.72c3.31.01,6.84.02,10.53.03h93.66s0,14.55,0,14.55h-78.22v17.1h-16.16Z"/>
        <polygon class="cls-1" points="396.72 89.18 396.72 44.12 412.88 44.12 412.88 44.13 491.1 44.13 491.1 58.44 412.88 58.44 412.88 74.62 491.1 74.62 491.1 89.18 396.72 89.18"/>
      </g>
      <path class="cls-1" d="m520.36,89.18V15.25c-.58-4.04-2.82-4.59-5.65-5.29-2.53-.63-5.99-1.48-6.04-6.03l-.02-1.72h1.72c3.43.01,7.09.02,10.92.03h15.28s0,72.39,0,72.39h78.18v14.55h-94.38Z"/>
      <path class="cls-1" d="m376.83,44.12v1.7c0,1.35-.06,2.66-.16,3.94-.42,5.57-1.72,10.5-3.73,14.82-3.65,7.88-9.64,13.78-16.95,18.01-1.16.67-2.36,1.3-3.58,1.89-8.86,4.27-19.25,6.39-29.59,6.83-1.4.06-2.81.09-4.21.09-15.8,0-30.08-3.76-40.19-10.58-11.87-8.01-18.14-20.15-18.14-35.13s6.25-27.06,18.09-35.07c6.09-4.12,13.69-7.14,22.23-8.87,3.85-.79,7.89-1.32,12.07-1.57,1.95-.12,3.94-.18,5.95-.18,1.45,0,2.88.03,4.29.09,9.68.41,18.38,2.2,25.83,5.23,11.95,4.85,20.66,12.86,24.96,23.39.4.96.75,1.95,1.08,2.96l.7,2.21h-17.97l-.45-1c-5.02-11.13-17.35-17.87-34.19-18.82-1.03-.06-2.08-.1-3.15-.11-.36-.01-.72-.01-1.09-.01-3.49,0-7.02.25-10.47.8-4.39.7-8.66,1.86-12.54,3.58-10.5,4.64-18.23,13.28-18.23,27.38v.11c.01,3.7.56,7.18,1.64,10.33,4.62,13.56,19.06,21.33,39.61,21.33.42,0,.84,0,1.26-.02.96-.02,1.91-.05,2.85-.1,8.78-.46,16.3-2.46,22.2-5.82,1.44-.82,2.79-1.72,4.03-2.7,3.62-2.84,6.39-6.35,8.19-10.45h-64.39c-.32-.73-.62-1.48-.88-2.25-1.08-3.15-1.63-6.63-1.64-10.33v-.11c0-.54.01-1.07.04-1.59h78.56s7.99,0,7.99,0Z"/>
    </g>
  </g>
</svg>